<svg id="Слой_1" data-name="Слой 1" xmlns="http://www.w3.org/2000/svg" width="110.97mm" height="15.89mm" viewBox="0 0 314.57 45.03">
  <defs>
    <style>
      .cls-1 {
        fill: #a6a4a4;
      }
    </style>
  </defs>
  <title>footer-logo</title>
  <g>
    <g>
      <path class="cls-1" d="M211.44,8.59q0,.31,0,.58a3.34,3.34,0,0,0,.07.44,2.44,2.44,0,0,0,.21.52,1.48,1.48,0,0,0,.37.45h0l0,0a1.89,1.89,0,0,0,.56.31,2.34,2.34,0,0,0,.78.12,2.09,2.09,0,0,0,1.59-.54A2.25,2.25,0,0,0,215.65,9h0v0l-1.19-.2a1.69,1.69,0,0,1-.2.88.7.7,0,0,1-.65.32.88.88,0,0,1-.56-.17,1.07,1.07,0,0,1-.29-.48,2.89,2.89,0,0,1-.09-.71c0-.31,0-.62,0-.94,0-.58,0-1.09,0-1.51a3.1,3.1,0,0,1,.12-.86.91.91,0,0,1,.34-.47.92.92,0,0,1,.5-.13.81.81,0,0,1,.35.07.72.72,0,0,1,.23.19,1.57,1.57,0,0,1,.23,1h0s0,0,0,0l1.2-.16a2.47,2.47,0,0,0-.46-1.57,1.31,1.31,0,0,0-.28-.26,2.12,2.12,0,0,0-1.3-.36,2.24,2.24,0,0,0-1.29.32,1.79,1.79,0,0,0-.67.88,2,2,0,0,0-.12.46q0,.29-.07.64c0,.23,0,.48,0,.74s0,.51,0,.75,0,.39,0,.6S211.43,8.38,211.44,8.59Z"/>
      <path class="cls-1" d="M231.07,10.32a1.38,1.38,0,0,0,.25.3,1.36,1.36,0,0,0,1,.4,2.11,2.11,0,0,0,.84-.16,1.64,1.64,0,0,0,.64-.53v.57h0v0H235V5.6A1.94,1.94,0,0,0,234.51,4l0,0V4A2.3,2.3,0,0,0,233,3.56a2.21,2.21,0,0,0-1.38.41,1.88,1.88,0,0,0-.7,1.13h0v0l1.1.31a.81.81,0,0,1,.35-.57,1.06,1.06,0,0,1,.57-.18,1,1,0,0,1,.72.23,1.06,1.06,0,0,1,.19.66v1h-1.14a2,2,0,0,0-1,.21,1.68,1.68,0,0,0-.6.55,2.21,2.21,0,0,0-.31.75,4,4,0,0,0-.09.82,3.66,3.66,0,0,0,.08.77A2.15,2.15,0,0,0,231.07,10.32Zm.82-1.48a1.18,1.18,0,0,1,.34-1,1.25,1.25,0,0,1,.8-.27h.81V8.7a1.24,1.24,0,0,1-.27.85,1,1,0,0,1-.81.31.84.84,0,0,1-.65-.24A1.22,1.22,0,0,1,231.9,8.83Z"/>
      <path class="cls-1" d="M237.11,9.6a2.27,2.27,0,0,0,.22.52,1.58,1.58,0,0,0,.38.45h0l0,0a1.89,1.89,0,0,0,.56.31,2.34,2.34,0,0,0,.78.12,3.66,3.66,0,0,0,.72-.07,1.93,1.93,0,0,0,.68-.28,1.72,1.72,0,0,0,.53-.57,2.43,2.43,0,0,0,.29-1q0-.42.06-.72c0-.19,0-.43,0-.7s0-.45,0-.7,0-.5,0-.75,0-.47-.06-.69a2.45,2.45,0,0,0-.11-.53,2.59,2.59,0,0,0-.22-.45,1.5,1.5,0,0,0-.33-.37h0l0,0a1.52,1.52,0,0,0-.49-.26,2.31,2.31,0,0,0-.71-.1,2,2,0,0,0-.57.12,1.36,1.36,0,0,0-.65.48,4.36,4.36,0,0,1,.2-1.31,1.51,1.51,0,0,1,.72-.91q.36-.21.62-.32l.48-.21.45-.19.57-.28-.39-.82h0l0,0-.62.26-.5.19-.46.18-.5.23a2.76,2.76,0,0,0-.81.58,2.57,2.57,0,0,0-.53.89,6,6,0,0,0-.3,1.36,17.54,17.54,0,0,0-.09,2V7.51q0,.56,0,1.16A4.54,4.54,0,0,0,237.11,9.6Zm3.08-1a2.31,2.31,0,0,1-.11.66,1.17,1.17,0,0,1-.35.48.85.85,0,0,1-.55.19,1,1,0,0,1-.61-.17,1,1,0,0,1-.32-.48,2.61,2.61,0,0,1-.09-.63q0-.38,0-.86l0-1.41a2.22,2.22,0,0,1,.12-.81.92.92,0,0,1,.38-.48,1.06,1.06,0,0,1,.55-.15,1,1,0,0,1,.57.17,1,1,0,0,1,.31.51,1.73,1.73,0,0,1,.07.37c0,.16,0,.33,0,.51s0,.36,0,.53,0,.33,0,.45Q240.23,8.1,240.2,8.6Z"/>
      <path class="cls-1" d="M268.88,10.32a1.38,1.38,0,0,0,.25.3,1.36,1.36,0,0,0,1,.4,2.11,2.11,0,0,0,.84-.16,1.64,1.64,0,0,0,.64-.53v.57h0v0h1.16V5.6A1.94,1.94,0,0,0,272.32,4l0,0V4a2.3,2.3,0,0,0-1.52-.45,2.21,2.21,0,0,0-1.38.41,1.88,1.88,0,0,0-.7,1.13h0v0l1.1.31a.81.81,0,0,1,.35-.57,1.06,1.06,0,0,1,.57-.18,1,1,0,0,1,.72.23,1.06,1.06,0,0,1,.19.66v1h-1.14a2,2,0,0,0-1,.21,1.68,1.68,0,0,0-.6.55,2.22,2.22,0,0,0-.31.75,4,4,0,0,0-.09.82,3.66,3.66,0,0,0,.08.77A2.15,2.15,0,0,0,268.88,10.32Zm.82-1.48a1.18,1.18,0,0,1,.34-1,1.25,1.25,0,0,1,.8-.27h.81V8.7a1.24,1.24,0,0,1-.27.85,1,1,0,0,1-.81.31.84.84,0,0,1-.65-.24A1.22,1.22,0,0,1,269.7,8.83Z"/>
      <polygon class="cls-1" points="200.63 19.29 196.35 19.29 196.35 26.52 196.39 26.52 196.39 26.56 197.55 26.56 197.55 20.35 199.47 20.35 199.47 26.52 199.51 26.52 199.51 26.56 200.67 26.56 200.67 19.32 200.63 19.32 200.63 19.29"/>
      <path class="cls-1" d="M202.68,19.28V29.34h0v0h1.16V26h0a1.39,1.39,0,0,0,.23.24,1.31,1.31,0,0,0,.29.2,1.6,1.6,0,0,0,.73.15,1.67,1.67,0,0,0,1.06-.3,1.75,1.75,0,0,0,.56-.81,4.27,4.27,0,0,0,.22-1.21q0-.7,0-1.49,0-.42,0-.91T207,21a2.51,2.51,0,0,0-.28-1,1.69,1.69,0,0,0-.46-.54h0l0,0a1.31,1.31,0,0,0-.53-.23,2.66,2.66,0,0,0-.47-.05,1.58,1.58,0,0,0-.83.17,1.86,1.86,0,0,0-.48.48v-.52h0v0Zm1.18,5.09V21.49a1.3,1.3,0,0,1,.25-.82.87.87,0,0,1,.73-.32,1,1,0,0,1,.56.13.85.85,0,0,1,.28.42,3,3,0,0,1,.12.78q0,.48,0,1.15t0,1.25a3.33,3.33,0,0,1-.15.81.8.8,0,0,1-.31.43,1,1,0,0,1-.52.12.89.89,0,0,1-.71-.28A1.32,1.32,0,0,1,203.86,24.36Z"/>
      <path class="cls-1" d="M233.32,26.52h0v0h1.16V19.33h0v0h-3.84v4.32a7.48,7.48,0,0,1,0,.88,1.91,1.91,0,0,1-.16.59,1.5,1.5,0,0,1-.31.43,3.59,3.59,0,0,1-.5.4l.51.86h0l0,0a3.26,3.26,0,0,0,.74-.46,2,2,0,0,0,.48-.62,3,3,0,0,0,.26-.86,7.47,7.47,0,0,0,.08-1.18V20.35h1.58Z"/>
      <polygon class="cls-1" points="245.72 26.52 245.76 26.52 245.76 26.56 246.95 26.56 246.95 19.32 246.91 19.32 246.91 19.29 245.72 19.29 245.72 22.34 243.86 22.34 243.86 19.32 243.82 19.32 243.82 19.29 242.63 19.29 242.63 26.52 242.68 26.52 242.68 26.56 243.86 26.56 243.86 23.35 245.72 23.35 245.72 26.52"/>
      <polygon class="cls-1" points="253.97 19.29 253.97 26.52 254.01 26.52 254.01 26.56 255.21 26.56 255.21 19.32 255.17 19.32 255.17 19.29 253.97 19.29"/>
      <polygon class="cls-1" points="289.93 19.29 288.74 19.29 288.74 22.34 286.88 22.34 286.88 19.32 286.84 19.32 286.84 19.29 285.65 19.29 285.65 26.52 285.69 26.52 285.69 26.56 286.88 26.56 286.88 23.35 288.74 23.35 288.74 26.52 288.78 26.52 288.78 26.56 289.97 26.56 289.97 19.32 289.93 19.32 289.93 19.29"/>
      <polygon class="cls-1" points="200.63 34.92 196.35 34.92 196.35 42.16 196.39 42.16 196.39 42.19 197.55 42.19 197.55 35.98 199.47 35.98 199.47 42.16 199.51 42.16 199.51 42.19 200.67 42.19 200.67 34.96 200.63 34.96 200.63 34.92"/>
      <polygon class="cls-1" points="237.09 34.92 235.9 34.92 235.9 37.97 234.04 37.97 234.04 34.96 234 34.96 234 34.92 232.81 34.92 232.81 42.16 232.85 42.16 232.85 42.19 234.04 42.19 234.04 38.98 235.9 38.98 235.9 42.16 235.94 42.16 235.94 42.19 237.13 42.19 237.13 34.96 237.09 34.96 237.09 34.92"/>
      <path class="cls-1" d="M243.32,34.92h-1.16v3.13a2.64,2.64,0,0,1-.56.26,1.8,1.8,0,0,1-.55.09.85.85,0,0,1-.63-.22,1.09,1.09,0,0,1-.22-.73V35h0v0H239v2.81a1.77,1.77,0,0,0,.43,1.33l0,0v0a1.69,1.69,0,0,0,1.21.41,3.14,3.14,0,0,0,1.45-.4v3h0v0h1.17V35h0Z"/>
      <polygon class="cls-1" points="255.97 34.92 254.82 34.92 252.71 39.63 252.71 34.96 252.66 34.96 252.66 34.92 251.54 34.92 251.54 42.16 251.58 42.16 251.58 42.19 252.69 42.19 254.82 37.43 254.82 42.16 254.86 42.16 254.86 42.19 256.01 42.19 256.01 34.96 255.97 34.96 255.97 34.92"/>
      <path class="cls-1" d="M254.68,32.05a.82.82,0,0,1-.07.31,1,1,0,0,1-.2.3,1,1,0,0,1-.31.23,1,1,0,0,1-.42.09.88.88,0,0,1-.4-.09,1,1,0,0,1-.26-.2,1.17,1.17,0,0,1-.19-.29.94.94,0,0,1-.09-.31h0v0h-1a1.9,1.9,0,0,0,.1.59,1.67,1.67,0,0,0,.33.58,1.59,1.59,0,0,0,.27.25,2,2,0,0,0,.36.22,2.08,2.08,0,0,0,.91.18,1.84,1.84,0,0,0,.83-.18,1.93,1.93,0,0,0,.59-.44,1.83,1.83,0,0,0,.35-.58,2.42,2.42,0,0,0,.15-.59h0v0Z"/>
      <polygon class="cls-1" points="268.52 34.92 267.36 34.92 265.25 39.63 265.25 34.96 265.21 34.96 265.21 34.92 264.08 34.92 264.08 42.16 264.13 42.16 264.13 42.19 265.24 42.19 267.36 37.46 267.36 42.16 267.41 42.16 267.41 42.19 268.56 42.19 268.56 34.96 268.52 34.96 268.52 34.92"/>
      <polygon class="cls-1" points="275.02 34.92 273.84 34.92 273.84 37.97 271.97 37.97 271.97 34.96 271.93 34.96 271.93 34.92 270.75 34.92 270.75 42.16 270.79 42.16 270.79 42.19 271.97 42.19 271.97 38.98 273.84 38.98 273.84 42.16 273.88 42.16 273.88 42.19 275.06 42.19 275.06 34.96 275.02 34.96 275.02 34.92"/>
      <polygon class="cls-1" points="281 34.92 277.25 34.92 277.25 42.16 277.29 42.16 277.29 42.19 278.44 42.19 278.44 35.98 281.04 35.98 281.04 34.96 281 34.96 281 34.92"/>
      <path class="cls-1" d="M287.06,34.92h-1.19l-.6,2.74-.54,2.53h0l-.58-2.47L283.53,35h0v0h-1.23l1.92,7.29-.12.51a3.19,3.19,0,0,1-.34,1,.67.67,0,0,1-.59.27h-.29v1h0v0h.44a1.44,1.44,0,0,0,1.16-.45A2.8,2.8,0,0,0,285,43.4L287.1,35h0Z"/>
      <polygon class="cls-1" points="203.17 10.93 203.17 0.74 203.13 0.74 203.13 0.7 201.94 0.7 200.76 3.81 199.79 6.37 199.78 6.37 198.85 3.91 197.64 0.74 197.61 0.74 197.59 0.7 196.42 0.7 196.42 10.89 196.47 10.89 196.47 10.93 197.62 10.93 197.62 3.87 197.65 3.87 198.44 5.94 199.5 8.42 199.53 8.42 199.54 8.45 200.08 8.45 201.13 5.98 201.94 3.87 201.97 3.87 201.97 10.89 202.01 10.89 202.01 10.93 203.17 10.93"/>
      <path class="cls-1" d="M209.5,10.93V5.6A1.94,1.94,0,0,0,209,4l0,0V4a2.3,2.3,0,0,0-1.51-.45A2.21,2.21,0,0,0,206,4a1.88,1.88,0,0,0-.7,1.13h0v0l1.1.31a.81.81,0,0,1,.35-.57,1.05,1.05,0,0,1,.57-.18,1,1,0,0,1,.72.23,1.06,1.06,0,0,1,.19.66v1h-1.14a2,2,0,0,0-1,.21,1.67,1.67,0,0,0-.6.55,2.2,2.2,0,0,0-.31.75,3.9,3.9,0,0,0-.09.82,3.63,3.63,0,0,0,.08.77,2.15,2.15,0,0,0,.26.67,1.4,1.4,0,0,0,.25.3,1.44,1.44,0,0,0,.28.22,1.46,1.46,0,0,0,.76.18,2.11,2.11,0,0,0,.84-.16,1.64,1.64,0,0,0,.64-.53v.57h0v0Zm-3.15-2.09a1.18,1.18,0,0,1,.34-1,1.25,1.25,0,0,1,.8-.27h.81V8.7a1.24,1.24,0,0,1-.27.85,1,1,0,0,1-.81.31.84.84,0,0,1-.65-.24A1.22,1.22,0,0,1,206.35,8.83Z"/>
      <polygon class="cls-1" points="217.46 10.93 224.28 10.93 224.28 3.69 224.24 3.69 224.24 3.66 223.12 3.66 223.12 9.8 221.44 9.8 221.44 3.69 221.4 3.69 221.4 3.66 220.25 3.66 220.25 9.8 218.62 9.8 218.62 3.69 218.58 3.69 218.58 3.66 217.42 3.66 217.42 10.89 217.46 10.89 217.46 10.93"/>
      <polygon class="cls-1" points="225.88 4.72 227.36 4.72 227.36 10.89 227.4 10.89 227.4 10.93 228.56 10.93 228.56 4.72 230.1 4.72 230.1 3.69 230.06 3.69 230.06 3.66 225.84 3.66 225.84 4.69 225.88 4.69 225.88 4.72"/>
      <polygon class="cls-1" points="243.38 10.93 244.49 10.93 246.62 6.2 246.62 10.89 246.66 10.89 246.66 10.93 247.81 10.93 247.81 3.69 247.77 3.69 247.77 3.66 246.62 3.66 244.5 8.36 244.5 3.69 244.46 3.69 244.46 3.66 243.34 3.66 243.34 10.89 243.38 10.89 243.38 10.93"/>
      <path class="cls-1" d="M249.85,13.74H251V10.4h0a1.4,1.4,0,0,0,.23.24,1.32,1.32,0,0,0,.29.2,1.6,1.6,0,0,0,.73.15,1.67,1.67,0,0,0,1.06-.3,1.76,1.76,0,0,0,.56-.81,4.27,4.27,0,0,0,.22-1.21q0-.7,0-1.49,0-.42,0-.91t-.05-.92a2.5,2.5,0,0,0-.28-1,1.69,1.69,0,0,0-.46-.54h0l0,0a1.32,1.32,0,0,0-.53-.23,2.66,2.66,0,0,0-.47-.05,1.58,1.58,0,0,0-.83.17,1.88,1.88,0,0,0-.48.48V3.68h0v0h-1.16V13.71h0Zm1.14-5V5.86a1.3,1.3,0,0,1,.25-.82.87.87,0,0,1,.73-.32,1,1,0,0,1,.56.13.84.84,0,0,1,.28.42,2.93,2.93,0,0,1,.12.78q0,.48,0,1.15t0,1.25a3.38,3.38,0,0,1-.15.81.81.81,0,0,1-.31.43,1,1,0,0,1-.52.12.89.89,0,0,1-.71-.28A1.32,1.32,0,0,1,251,8.73Z"/>
      <path class="cls-1" d="M257.36,10.91a2.36,2.36,0,0,0,.79.12,3.68,3.68,0,0,0,.72-.07,1.94,1.94,0,0,0,.68-.28,1.73,1.73,0,0,0,.54-.57,2.43,2.43,0,0,0,.29-1,15.89,15.89,0,0,0,.09-1.67c0-.25,0-.54,0-.86s0-.62,0-.91a4.36,4.36,0,0,0-.13-.84,1.75,1.75,0,0,0-.34-.67,1.44,1.44,0,0,0-.29-.26,1.71,1.71,0,0,0-.38-.22,2.67,2.67,0,0,0-1-.16,2.33,2.33,0,0,0-1.31.32,1.76,1.76,0,0,0-.69.88,2,2,0,0,0-.12.46c0,.19-.05.4-.07.64s0,.48,0,.74,0,.51,0,.75,0,.39,0,.6,0,.43,0,.64,0,.4,0,.58a3.49,3.49,0,0,0,.07.44,2.32,2.32,0,0,0,.22.52,1.6,1.6,0,0,0,.38.45h0l0,0A1.91,1.91,0,0,0,257.36,10.91Zm-.1-4.8a3,3,0,0,1,.12-.85.86.86,0,0,1,.37-.47,1.09,1.09,0,0,1,.53-.13,1,1,0,0,1,.57.16,1,1,0,0,1,.31.49,1.74,1.74,0,0,1,.07.35c0,.15,0,.31,0,.5s0,.38,0,.58,0,.4,0,.61,0,.41,0,.61,0,.4,0,.58,0,.34-.05.47a1.44,1.44,0,0,1-.06.27,1.11,1.11,0,0,1-.35.47.84.84,0,0,1-.54.18,1.06,1.06,0,0,1-.6-.16.92.92,0,0,1-.32-.48,3,3,0,0,1-.09-.71q0-.46,0-.94Q257.23,6.76,257.26,6.11Z"/>
      <path class="cls-1" d="M264.3,10.93a2.74,2.74,0,0,0,1.84-.53,2.11,2.11,0,0,0,.6-1.67,2.75,2.75,0,0,0-.17-1,1.12,1.12,0,0,0-.27-.4,1.21,1.21,0,0,0-.34-.24,1.57,1.57,0,0,0,.52-.57,1.85,1.85,0,0,0,.17-.84,1.9,1.9,0,0,0-.56-1.46l0,0h0a2.49,2.49,0,0,0-1.74-.52h-1.93v7.23h0v0Zm-.69-3.32h.79a1.41,1.41,0,0,1,.94.24,1.1,1.1,0,0,1,.25.77,2.9,2.9,0,0,1,0,.48.75.75,0,0,1-.17.37.88.88,0,0,1-.37.24,1.83,1.83,0,0,1-.63.09h-.78Zm1.85-2a.94.94,0,0,1-.28.73,1.4,1.4,0,0,1-.94.25h-.63V4.72h.69a1.45,1.45,0,0,1,.9.22A.88.88,0,0,1,265.46,5.62Z"/>
      <polygon class="cls-1" points="275.02 10.93 276.21 10.93 276.21 7.72 278.07 7.72 278.07 10.89 278.11 10.89 278.11 10.93 279.3 10.93 279.3 3.69 279.25 3.69 279.25 3.66 278.07 3.66 278.07 6.71 276.21 6.71 276.21 3.69 276.17 3.69 276.17 3.66 274.98 3.66 274.98 10.89 275.02 10.89 275.02 10.93"/>
      <polygon class="cls-1" points="281.51 10.93 282.62 10.93 284.75 6.2 284.75 10.89 284.79 10.89 284.79 10.93 285.94 10.93 285.94 3.69 285.9 3.69 285.9 3.66 284.75 3.66 282.63 8.36 282.63 3.69 282.59 3.69 282.59 3.66 281.47 3.66 281.47 10.89 281.51 10.89 281.51 10.93"/>
      <path class="cls-1" d="M292.14,9.09v0L291,8.84a1.45,1.45,0,0,1-.24.8.75.75,0,0,1-.64.29,1,1,0,0,1-.57-.16.93.93,0,0,1-.31-.47,3.24,3.24,0,0,1-.09-.72q0-.47,0-1h3.1V5.85a2.58,2.58,0,0,0-.48-1.66,1.39,1.39,0,0,0-.29-.27,2.12,2.12,0,0,0-1.31-.36,2.2,2.2,0,0,0-1.29.34,1.85,1.85,0,0,0-.68.91,2.35,2.35,0,0,0-.12.48q0,.29-.07.62t0,.71q0,.37,0,.74t0,.6q0,.32,0,.64t0,.58a3.34,3.34,0,0,0,.07.44,1.91,1.91,0,0,0,.2.5,1.61,1.61,0,0,0,.37.45h0l0,0a1.88,1.88,0,0,0,.57.32,2.33,2.33,0,0,0,.8.12,2.19,2.19,0,0,0,1.57-.5,2.08,2.08,0,0,0,.58-1.43Zm-1.32-4a1.34,1.34,0,0,1,.14.45A3.72,3.72,0,0,1,291,6v.61h-1.89c0-.33,0-.6,0-.83a2.27,2.27,0,0,1,.1-.56.87.87,0,0,1,.35-.46,1,1,0,0,1,.49-.12.94.94,0,0,1,.47.1A.77.77,0,0,1,290.82,5.07Z"/>
      <polygon class="cls-1" points="213.54 26.56 213.54 19.32 213.5 19.32 213.5 19.29 212.34 19.29 210.23 24 210.23 19.32 210.19 19.32 210.19 19.29 209.06 19.29 209.06 26.52 209.1 26.52 209.1 26.56 210.21 26.56 212.34 21.83 212.34 26.52 212.38 26.52 212.38 26.56 213.54 26.56"/>
      <path class="cls-1" d="M219.91,21.92c0-.24,0-.47-.06-.69a2.45,2.45,0,0,0-.11-.53,2.59,2.59,0,0,0-.22-.45,1.5,1.5,0,0,0-.33-.37h0l0,0a1.53,1.53,0,0,0-.49-.26,2.31,2.31,0,0,0-.71-.1,2,2,0,0,0-.57.12,1.36,1.36,0,0,0-.65.48,4.36,4.36,0,0,1,.2-1.31,1.51,1.51,0,0,1,.72-.91q.36-.21.62-.32l.48-.21.45-.19.57-.28-.39-.82h0l0,0-.61.26-.5.19-.46.18-.5.23a2.76,2.76,0,0,0-.81.58,2.57,2.57,0,0,0-.53.89,6,6,0,0,0-.3,1.36,17.54,17.54,0,0,0-.09,2v1.45q0,.56,0,1.16a4.53,4.53,0,0,0,.11.94,2.27,2.27,0,0,0,.22.52,1.58,1.58,0,0,0,.38.45h0l0,0a1.89,1.89,0,0,0,.56.31,2.34,2.34,0,0,0,.78.12,3.66,3.66,0,0,0,.72-.07,1.93,1.93,0,0,0,.68-.28,1.72,1.72,0,0,0,.53-.57,2.43,2.43,0,0,0,.29-1q0-.42.06-.72c0-.19,0-.43,0-.7s0-.45,0-.7S219.93,22.16,219.91,21.92Zm-1.17,2.31a2.31,2.31,0,0,1-.11.66,1.17,1.17,0,0,1-.35.48.85.85,0,0,1-.55.19,1,1,0,0,1-.61-.17,1,1,0,0,1-.32-.48,2.61,2.61,0,0,1-.09-.63q0-.38,0-.86l0-1.41a2.22,2.22,0,0,1,.12-.81.92.92,0,0,1,.38-.48,1.06,1.06,0,0,1,.55-.15,1,1,0,0,1,.57.17,1,1,0,0,1,.31.51,1.73,1.73,0,0,1,.07.37c0,.16,0,.33,0,.51s0,.36,0,.53,0,.33,0,.45Q218.78,23.73,218.75,24.23Z"/>
      <polygon class="cls-1" points="227.97 26.56 227.97 19.32 227.93 19.32 227.93 19.29 226.73 19.29 226.73 26.52 226.77 26.52 226.77 26.56 227.97 26.56"/>
      <path class="cls-1" d="M225.71,22.74a1.56,1.56,0,0,0-.32-.27,2.12,2.12,0,0,0-.45-.24A3.44,3.44,0,0,0,223.7,22h-.59V19.33h0v0h-1.2v7.23h0v0h1.9A3.51,3.51,0,0,0,225,26.4a1.58,1.58,0,0,0,1.08-1.18,4.05,4.05,0,0,0,.1-.95,3.54,3.54,0,0,0-.1-.83A1.6,1.6,0,0,0,225.71,22.74Zm-2.59.4h.6a2,2,0,0,1,.67.1l.23.11.13.11a.77.77,0,0,1,.18.37,2.12,2.12,0,0,1,0,.43,1.94,1.94,0,0,1,0,.41.91.91,0,0,1-.18.37,1,1,0,0,1-.38.28,1.65,1.65,0,0,1-.66.11h-.59Z"/>
      <path class="cls-1" d="M240.35,25.94a1.65,1.65,0,0,0,.37-.72,4.06,4.06,0,0,0,.1-.95,3.53,3.53,0,0,0-.1-.83,1.6,1.6,0,0,0-.36-.69,1.56,1.56,0,0,0-.32-.27,2.12,2.12,0,0,0-.45-.24,3.44,3.44,0,0,0-1.23-.18h-.59V19.33h0v0h-1.2v7.23h0v0h1.9a3.51,3.51,0,0,0,1.16-.16A1.67,1.67,0,0,0,240.35,25.94Zm-2.58-2.79h.6a2,2,0,0,1,.67.1l.23.11.13.11a.77.77,0,0,1,.18.37,2.12,2.12,0,0,1,0,.43,1.94,1.94,0,0,1,0,.41.9.9,0,0,1-.18.37,1,1,0,0,1-.38.28,1.65,1.65,0,0,1-.66.11h-.59Z"/>
      <path class="cls-1" d="M252.92,25.94a1.65,1.65,0,0,0,.37-.72,4.05,4.05,0,0,0,.1-.95,3.53,3.53,0,0,0-.1-.83,1.6,1.6,0,0,0-.36-.69,1.56,1.56,0,0,0-.32-.27,2.12,2.12,0,0,0-.45-.24,3.44,3.44,0,0,0-1.23-.18h-.59V19.33h0v0h-1.2v7.23h0v0h1.9a3.51,3.51,0,0,0,1.16-.16A1.67,1.67,0,0,0,252.92,25.94Zm-2.58-2.79h.6a2,2,0,0,1,.67.1l.23.11.13.11a.77.77,0,0,1,.18.37,2.12,2.12,0,0,1,0,.43,1.94,1.94,0,0,1,0,.41A.91.91,0,0,1,252,25a1,1,0,0,1-.38.28,1.65,1.65,0,0,1-.66.11h-.59Z"/>
      <polygon class="cls-1" points="258.18 26.56 259.26 24.09 260.28 26.52 260.3 26.52 260.32 26.56 261.61 26.56 259.91 22.85 261.58 19.32 261.52 19.32 261.54 19.29 260.19 19.29 259.25 21.65 258.27 19.32 258.24 19.32 258.23 19.29 256.93 19.29 258.64 22.84 256.87 26.52 256.92 26.52 256.91 26.56 258.18 26.56"/>
      <path class="cls-1" d="M271.08,24.79q0-.42.06-.72c0-.19,0-.43,0-.7s0-.45,0-.7,0-.5,0-.75,0-.47-.06-.69a2.45,2.45,0,0,0-.11-.53,2.59,2.59,0,0,0-.22-.45,1.5,1.5,0,0,0-.33-.37h0l0,0a1.53,1.53,0,0,0-.49-.26,2.31,2.31,0,0,0-.71-.1,2,2,0,0,0-.57.12,1.36,1.36,0,0,0-.65.48,4.36,4.36,0,0,1,.2-1.31,1.51,1.51,0,0,1,.72-.91q.36-.21.62-.32l.48-.21.45-.19.57-.28-.39-.82h0l0,0-.62.26-.5.19-.46.18-.5.23a2.76,2.76,0,0,0-.81.58,2.57,2.57,0,0,0-.53.89,6,6,0,0,0-.3,1.36,17.54,17.54,0,0,0-.09,2v1.45q0,.56,0,1.16a4.53,4.53,0,0,0,.11.94,2.27,2.27,0,0,0,.22.52,1.58,1.58,0,0,0,.38.45h0l0,0a1.89,1.89,0,0,0,.56.31,2.34,2.34,0,0,0,.78.12,3.66,3.66,0,0,0,.72-.07,1.93,1.93,0,0,0,.68-.28,1.72,1.72,0,0,0,.53-.57A2.43,2.43,0,0,0,271.08,24.79Zm-1.13-.56a2.31,2.31,0,0,1-.11.66,1.17,1.17,0,0,1-.35.48.85.85,0,0,1-.55.19,1,1,0,0,1-.61-.17,1,1,0,0,1-.32-.48,2.61,2.61,0,0,1-.09-.63q0-.38,0-.86l0-1.41a2.22,2.22,0,0,1,.12-.81.92.92,0,0,1,.38-.48,1.06,1.06,0,0,1,.55-.15,1,1,0,0,1,.57.17,1,1,0,0,1,.31.51,1.74,1.74,0,0,1,.07.37c0,.16,0,.33,0,.51s0,.36,0,.53,0,.33,0,.45Q270,23.73,269.95,24.23Z"/>
      <polygon class="cls-1" points="277.57 26.56 277.57 19.32 277.53 19.32 277.53 19.29 276.37 19.29 274.26 24 274.26 19.32 274.22 19.32 274.22 19.29 273.09 19.29 273.09 26.52 273.13 26.52 273.13 26.56 274.24 26.56 276.37 21.83 276.37 26.52 276.41 26.52 276.41 26.56 277.57 26.56"/>
      <path class="cls-1" d="M283.37,25.5a2.51,2.51,0,0,0,.18-1,3.78,3.78,0,0,0-.13-1,.85.85,0,0,0-.26-.4,1,1,0,0,0-.37-.23v0a1,1,0,0,0,.37-.25,1.3,1.3,0,0,0,.23-.37,1.77,1.77,0,0,0,.12-.45,3.36,3.36,0,0,0,0-.5,1.86,1.86,0,0,0-.56-1.49l0,0h0a2.34,2.34,0,0,0-1.57-.48,2.15,2.15,0,0,0-1.43.47,1.88,1.88,0,0,0-.63,1.35h0v0l1.1.23q.06-1,1-1a.9.9,0,0,1,.69.25,1.07,1.07,0,0,1,.22.69,1.36,1.36,0,0,1-.18.76.67.67,0,0,1-.6.26h-.67v1h0v0h.64a.84.84,0,0,1,.38.08.57.57,0,0,1,.21.21,1.71,1.71,0,0,1,.18.82,1.06,1.06,0,0,1-.31.89,1.12,1.12,0,0,1-.69.24,1,1,0,0,1-.68-.22,1.12,1.12,0,0,1-.26-.75h0s0,0,0,0l-1.13.18a1.93,1.93,0,0,0,.64,1.42h0l0,0a2.25,2.25,0,0,0,1.44.44,3.18,3.18,0,0,0,.84-.11,1.92,1.92,0,0,0,.71-.36A1.74,1.74,0,0,0,283.37,25.5Z"/>
      <path class="cls-1" d="M295.45,19.55a2.12,2.12,0,0,0-1.31-.37,2.2,2.2,0,0,0-1.29.34,1.85,1.85,0,0,0-.68.91,2.35,2.35,0,0,0-.12.48q0,.29-.07.62t0,.71q0,.37,0,.74t0,.6q0,.32,0,.64t0,.58a3.33,3.33,0,0,0,.07.44,1.91,1.91,0,0,0,.2.5,1.61,1.61,0,0,0,.37.45h0l0,0a1.88,1.88,0,0,0,.57.32,2.33,2.33,0,0,0,.8.12,2.19,2.19,0,0,0,1.57-.5,2.08,2.08,0,0,0,.58-1.43h0v0L295,24.48a1.45,1.45,0,0,1-.24.8.75.75,0,0,1-.64.29,1,1,0,0,1-.57-.16.93.93,0,0,1-.31-.47,3.24,3.24,0,0,1-.09-.72q0-.47,0-1h3.1V21.48a2.58,2.58,0,0,0-.48-1.66A1.39,1.39,0,0,0,295.45,19.55Zm-.6,1.14a1.34,1.34,0,0,1,.14.45,3.72,3.72,0,0,1,0,.53v.62h-1.89c0-.33,0-.6,0-.83a2.27,2.27,0,0,1,.1-.56.87.87,0,0,1,.35-.46,1,1,0,0,1,.49-.12.94.94,0,0,1,.47.1A.77.77,0,0,1,294.85,20.7Z"/>
      <path class="cls-1" d="M299.41,20.89a.91.91,0,0,1,.34-.47.92.92,0,0,1,.5-.13.81.81,0,0,1,.35.07.72.72,0,0,1,.23.19,1.57,1.57,0,0,1,.23,1h0s0,0,0,0l1.2-.16a2.47,2.47,0,0,0-.46-1.57,1.31,1.31,0,0,0-.28-.26,2.11,2.11,0,0,0-1.3-.36,2.25,2.25,0,0,0-1.29.32,1.78,1.78,0,0,0-.67.88,2,2,0,0,0-.12.46q0,.29-.07.64c0,.23,0,.48,0,.74s0,.51,0,.75,0,.39,0,.6,0,.43,0,.64,0,.4,0,.58a3.33,3.33,0,0,0,.07.44,2.46,2.46,0,0,0,.21.52,1.48,1.48,0,0,0,.37.45h0l0,0a1.89,1.89,0,0,0,.56.31,2.34,2.34,0,0,0,.78.12,2.09,2.09,0,0,0,1.59-.54,2.25,2.25,0,0,0,.54-1.53h0v0l-1.19-.2a1.69,1.69,0,0,1-.2.88.7.7,0,0,1-.65.32.88.88,0,0,1-.57-.17,1.08,1.08,0,0,1-.29-.48,2.94,2.94,0,0,1-.09-.71q0-.46,0-.94c0-.58,0-1.09,0-1.51A3.09,3.09,0,0,1,299.41,20.89Z"/>
      <path class="cls-1" d="M308.23,21.35a4.36,4.36,0,0,0-.13-.84,1.75,1.75,0,0,0-.34-.67,1.44,1.44,0,0,0-.29-.26,1.72,1.72,0,0,0-.38-.22,2.67,2.67,0,0,0-1-.16,2.33,2.33,0,0,0-1.31.32,1.76,1.76,0,0,0-.69.88,2,2,0,0,0-.12.46c0,.19-.05.4-.07.64s0,.48,0,.74,0,.51,0,.75,0,.39,0,.6,0,.43,0,.64,0,.4,0,.58a3.49,3.49,0,0,0,.07.44,2.32,2.32,0,0,0,.22.52,1.6,1.6,0,0,0,.38.45h0l0,0a1.91,1.91,0,0,0,.57.31,2.36,2.36,0,0,0,.79.12,3.68,3.68,0,0,0,.72-.07,1.94,1.94,0,0,0,.68-.28,1.73,1.73,0,0,0,.54-.57,2.43,2.43,0,0,0,.29-1,15.88,15.88,0,0,0,.09-1.67c0-.25,0-.54,0-.86S308.25,21.63,308.23,21.35Zm-3.15.4a3,3,0,0,1,.12-.85.86.86,0,0,1,.37-.47,1.09,1.09,0,0,1,.53-.13,1,1,0,0,1,.57.16,1,1,0,0,1,.31.49,1.74,1.74,0,0,1,.07.35c0,.15,0,.31,0,.5s0,.38,0,.58,0,.4,0,.61,0,.41,0,.61,0,.4,0,.58,0,.34-.05.47a1.43,1.43,0,0,1-.06.27,1.11,1.11,0,0,1-.35.47.84.84,0,0,1-.54.18,1.06,1.06,0,0,1-.6-.16.92.92,0,0,1-.32-.48,3,3,0,0,1-.09-.71q0-.46,0-.94Q305,22.4,305.08,21.75Z"/>
      <path class="cls-1" d="M314.4,23.36a1.12,1.12,0,0,0-.27-.4,1.21,1.21,0,0,0-.34-.24,1.57,1.57,0,0,0,.52-.57,1.85,1.85,0,0,0,.17-.84,1.9,1.9,0,0,0-.56-1.46l0,0h0a2.49,2.49,0,0,0-1.74-.52h-1.93v7.23h0v0h1.87A2.74,2.74,0,0,0,314,26a2.11,2.11,0,0,0,.6-1.67A2.75,2.75,0,0,0,314.4,23.36Zm-1.12-2.11A.94.94,0,0,1,313,22a1.4,1.4,0,0,1-.94.25h-.63V20.35h.69a1.45,1.45,0,0,1,.9.22A.88.88,0,0,1,313.28,21.25Zm-1.85,2h.79a1.41,1.41,0,0,1,.94.24,1.1,1.1,0,0,1,.25.77,2.91,2.91,0,0,1,0,.48.75.75,0,0,1-.17.37.88.88,0,0,1-.37.24,1.83,1.83,0,0,1-.63.09h-.78Z"/>
      <path class="cls-1" d="M207.07,37a4.43,4.43,0,0,0-.13-.84,1.76,1.76,0,0,0-.34-.67,1.44,1.44,0,0,0-.29-.26,1.71,1.71,0,0,0-.38-.22,2.66,2.66,0,0,0-1-.16,2.33,2.33,0,0,0-1.31.32,1.76,1.76,0,0,0-.69.88,2,2,0,0,0-.12.46q0,.29-.07.64c0,.23,0,.48,0,.74s0,.51,0,.75,0,.39,0,.6,0,.43,0,.64,0,.4,0,.58a3.4,3.4,0,0,0,.07.44,2.28,2.28,0,0,0,.22.52,1.58,1.58,0,0,0,.38.45h0l0,0a1.89,1.89,0,0,0,.57.31,2.36,2.36,0,0,0,.79.12,3.69,3.69,0,0,0,.72-.07,1.93,1.93,0,0,0,.68-.28,1.72,1.72,0,0,0,.54-.57,2.43,2.43,0,0,0,.29-1,15.89,15.89,0,0,0,.09-1.67q0-.38,0-.86C207.1,37.56,207.08,37.26,207.07,37Zm-3.15.4a3,3,0,0,1,.12-.85.86.86,0,0,1,.37-.47,1.09,1.09,0,0,1,.53-.13,1,1,0,0,1,.57.16,1,1,0,0,1,.31.49,1.71,1.71,0,0,1,.07.35c0,.15,0,.31,0,.5s0,.38,0,.58,0,.4,0,.61,0,.41,0,.61,0,.4,0,.58,0,.34-.05.47a1.38,1.38,0,0,1-.06.27,1.12,1.12,0,0,1-.35.47.84.84,0,0,1-.54.18,1.06,1.06,0,0,1-.6-.16.92.92,0,0,1-.32-.48,3,3,0,0,1-.09-.71q0-.46,0-.94Q203.89,38,203.92,37.38Z"/>
      <path class="cls-1" d="M218.44,37.34c0-.2,0-.4-.05-.57a4.2,4.2,0,0,0-.08-.44,2,2,0,0,0-.72-1.05h0l0,0a2.63,2.63,0,0,0-1.44-.42V32.14h0v0h-1.14v2.71a2.69,2.69,0,0,0-1.38.38,1.88,1.88,0,0,0-.72.92,3.49,3.49,0,0,0-.22,1.12q0,.64,0,1.37t0,1.46a2.78,2.78,0,0,0,.31,1.16,1.61,1.61,0,0,0,.33.42,1.81,1.81,0,0,0,.42.31,3.38,3.38,0,0,0,1.25.32V45h0v0h1.13V42.29a2.66,2.66,0,0,0,1.86-.85,2.39,2.39,0,0,0,.43-1.22q.07-.73.07-1.57,0-.32,0-.66T218.44,37.34Zm-1.26-.71a1.43,1.43,0,0,1,.07.34c0,.15,0,.33,0,.53v.65c0,.23,0,.47,0,.7s0,.67,0,1a1.9,1.9,0,0,1-.17.76,1.16,1.16,0,0,1-1,.58V36a1.74,1.74,0,0,1,.72.2A.9.9,0,0,1,217.19,36.64Zm-3.26,4a1.3,1.3,0,0,1-.07-.3c0-.13,0-.28,0-.44s0-.33,0-.51,0-.35,0-.51,0-.47,0-.7,0-.45,0-.66,0-.39,0-.54a2.06,2.06,0,0,1,.07-.37.86.86,0,0,1,.38-.46,1.65,1.65,0,0,1,.62-.19v5.21a1.43,1.43,0,0,1-.84-.33A.82.82,0,0,1,213.93,40.65Z"/>
      <path class="cls-1" d="M224.53,36.62a2.49,2.49,0,0,0-.28-1,1.69,1.69,0,0,0-.46-.54h0l0,0a1.32,1.32,0,0,0-.53-.23,2.66,2.66,0,0,0-.47-.05,1.58,1.58,0,0,0-.83.17,1.88,1.88,0,0,0-.48.48v-.52h0v0h-1.16V45h0v0h1.16V41.66h0a1.4,1.4,0,0,0,.23.24,1.32,1.32,0,0,0,.29.2,1.6,1.6,0,0,0,.73.15,1.67,1.67,0,0,0,1.06-.3,1.76,1.76,0,0,0,.56-.81,4.27,4.27,0,0,0,.22-1.21q0-.7,0-1.49,0-.42,0-.91T224.53,36.62ZM221.43,40V37.12a1.3,1.3,0,0,1,.25-.82.87.87,0,0,1,.73-.32,1,1,0,0,1,.56.13.84.84,0,0,1,.28.42,2.93,2.93,0,0,1,.12.78q0,.48,0,1.15t0,1.25a3.37,3.37,0,0,1-.15.81.81.81,0,0,1-.31.43,1,1,0,0,1-.52.12.89.89,0,0,1-.71-.28A1.32,1.32,0,0,1,221.43,40Z"/>
      <path class="cls-1" d="M230.12,35.28v0a2.3,2.3,0,0,0-1.52-.45,2.21,2.21,0,0,0-1.38.41,1.88,1.88,0,0,0-.7,1.13h0v0l1.1.31a.81.81,0,0,1,.35-.57,1.05,1.05,0,0,1,.57-.18,1,1,0,0,1,.72.23,1.06,1.06,0,0,1,.19.66v1h-1.14a2,2,0,0,0-1,.21,1.68,1.68,0,0,0-.6.55,2.22,2.22,0,0,0-.31.75,4,4,0,0,0-.09.82,3.66,3.66,0,0,0,.08.77,2.15,2.15,0,0,0,.26.67,1.38,1.38,0,0,0,.25.3,1.36,1.36,0,0,0,1,.4,2.11,2.11,0,0,0,.84-.16,1.64,1.64,0,0,0,.64-.53v.57h0v0h1.16V36.86a1.94,1.94,0,0,0-.54-1.56Zm-2.59,4.81a1.18,1.18,0,0,1,.34-1,1.25,1.25,0,0,1,.8-.27h.81V40a1.24,1.24,0,0,1-.27.85,1,1,0,0,1-.81.31.84.84,0,0,1-.65-.24A1.22,1.22,0,0,1,227.54,40.1Z"/>
      <path class="cls-1" d="M248.86,35.28v0a2.3,2.3,0,0,0-1.52-.45,2.21,2.21,0,0,0-1.38.41,1.88,1.88,0,0,0-.7,1.13h0v0l1.1.31a.81.81,0,0,1,.35-.57,1.05,1.05,0,0,1,.57-.18,1,1,0,0,1,.72.23,1.06,1.06,0,0,1,.19.66v1h-1.14a2,2,0,0,0-1,.21,1.68,1.68,0,0,0-.6.55,2.22,2.22,0,0,0-.31.75,4,4,0,0,0-.09.82,3.66,3.66,0,0,0,.08.77,2.15,2.15,0,0,0,.26.67,1.38,1.38,0,0,0,.25.3,1.36,1.36,0,0,0,1,.4,2.11,2.11,0,0,0,.84-.16,1.64,1.64,0,0,0,.64-.53v.57h0v0h1.16V36.86a1.94,1.94,0,0,0-.54-1.56Zm-2.59,4.81a1.18,1.18,0,0,1,.34-1,1.25,1.25,0,0,1,.8-.27h.81V40a1.24,1.24,0,0,1-.27.85,1,1,0,0,1-.81.31.84.84,0,0,1-.65-.24A1.22,1.22,0,0,1,246.28,40.1Z"/>
      <path class="cls-1" d="M261.61,38.18a1.3,1.3,0,0,0,.23-.37,1.77,1.77,0,0,0,.12-.45,3.36,3.36,0,0,0,0-.5,1.86,1.86,0,0,0-.56-1.49l0,0h0a2.34,2.34,0,0,0-1.57-.48,2.15,2.15,0,0,0-1.43.47,1.88,1.88,0,0,0-.63,1.35h0v0l1.1.23q.06-1,1-1a.9.9,0,0,1,.69.25,1.07,1.07,0,0,1,.22.69,1.36,1.36,0,0,1-.18.76.67.67,0,0,1-.6.26h-.67v1h0v0H260a.84.84,0,0,1,.38.08.57.57,0,0,1,.21.21,1.71,1.71,0,0,1,.18.82,1.06,1.06,0,0,1-.31.89,1.12,1.12,0,0,1-.69.24,1,1,0,0,1-.68-.22,1.12,1.12,0,0,1-.26-.75h0s0,0,0,0l-1.13.18a1.93,1.93,0,0,0,.64,1.42h0l0,0a2.25,2.25,0,0,0,1.44.44,3.18,3.18,0,0,0,.84-.11,1.92,1.92,0,0,0,.71-.36,1.74,1.74,0,0,0,.49-.66,2.51,2.51,0,0,0,.18-1,3.78,3.78,0,0,0-.13-1,.85.85,0,0,0-.26-.4,1,1,0,0,0-.37-.23v0A1,1,0,0,0,261.61,38.18Z"/>
    </g>
    <path class="cls-1" d="M14.51,31.19l0,3.75c0,3.32-1.64,5.66-5.31,5.58V37.41h0c1.5,0,2.08-.84,2.08-2.27V31.22l3.18,0Zm-3.19-1,0-2.93c0-1.53-.79-1.51-2.05-1.51V22.92c3.47-.47,5.27,1.43,5.28,3.78v3.5l-3.2,0ZM8.71,43.52H5.47V20.44l3.25-.34V43.52ZM0,30.63V28a4.77,4.77,0,0,1,5-4.89L5,26c-2.17,0-2.15,1.28-2.16,2.65v2Zm2.84,1,.06,1.84v1.92c0,1.89.55,2,2.07,2v3.42c-3,0-5-1.88-5-5.62v-3.5l2.85,0ZM20,18.92l-3.15.33-.15,24.26h3.15L20,18.92Zm.66,14.88h.49c3.82,0,5.24-1.86,5.24-5.89V26.27H23l0,1.87c0,1.2-.31,2.34-1.83,2.34h-.49l0,3.31Zm5.75-8.31V24.2c0-4-1-5.84-4.81-5.45l-.9.09v3.61h.64c1.7,0,1.63.48,1.63,2.12v.89l3.44,0Zm6.46-2.9-3,20.93H27l3.78-25.73,4.68-.49,3.25,26.22H35.43L32.85,22.58Zm.9,12.6.44,3.14H31.44L32,35.25l1.78-.06Zm10.1,8.33H40.61l.09-26.76,3.36-.35-.21,27.11ZM48.34,16l3.5-.36V43.51H48.34V16ZM47.54,28l0,3.33-2.61,0V28.15L47.54,28Zm13.92,4.51a4.42,4.42,0,0,1-2.8.78V28.94a2.06,2.06,0,0,0,2.78.08l0,3.52Zm.77-18,3.68-.38,0,29.39H62.18l0-29Zm-4,.42-.29,18.34c-2.09-.08-3.39-2.3-3.39-4.8l0-13.15,3.73-.39Zm18,22.9-3.31.06.39-4,2.32-.06.6,4ZM74.42,19,71.19,43.51H68l4-30,5.37-.57,4.08,30.58H77.51L74.42,19ZM86.93,43.51H83.59l0-31.26,3.33-.32,0,31.58ZM93,11.29l3.38-.34-.12,32.57H93V11.29Zm-.9,13.54-4.27,17.6v-14L92.1,12.33l0,12.5ZM94.58,4.3c0,2.67-.89,5.19-4,5.57-4.26.53-4.8-2.21-4.85-4.65L88.29,5c.06,1.4.18,2.32,2.06,2.1,1.13-.13,1.59-1.48,1.67-2.5l2.56-.27ZM105,14.74c-.13,0-1.63.89-1.63,4.13v1.85l-3.89.19V19.23c0-4.64,1-8.55,5.53-9.14v4.66Zm1.13,29.11-.09-4.74c2-.18,1.84-2.47,1.84-5l0-16c0-2.22-.36-3.11-1.83-3.5l.13-4.6A4.71,4.71,0,0,1,110.21,11a9,9,0,0,1,2.3,5l-.11,3.43c-.08,2.42-1.18,5.65-3.12,6.34A4.7,4.7,0,0,1,112,28.65a10.14,10.14,0,0,1,.39,3.29v4.48a7.89,7.89,0,0,1-2.21,5.79,5.9,5.9,0,0,1-4,1.64Zm-1-4.8,0,4.75a6.06,6.06,0,0,1-5.59-5.65l-.09-6.09h3.93v2.72c0,4.43,1.41,4.17,1.79,4.27Zm2-10a4.84,4.84,0,0,0-3.07-.66l0-4.35c.83,0,2.23.07,3-1v6Zm12,14.44h-3.71L115.54,9l3.71-.4-.08,35Zm5.75-20.25-4.43,18,0-14.5,4.42-18.16,0,14.7Zm1-15.41,4-.42,0,36.07h-4V7.85Zm18.37-1.92,4.88-.5V43.51l-4.88-.09V5.94Zm-5.06,16.56,3.86-.26V27.3l-3.87.26V22.49Zm-1,21h-4.63V7l4.62-.49V43.51ZM153,10.44V5l14.19-1.49V9.1L153,10.44ZM153,11.62l5.34-.38-.1,32.28h-4.93L153,11.62Zm24.91,4c2.31-2.12,6.73-2.89,8.95-.19,1.27,1.54,2.08,2.53,2.12,7.93l.08,9.31c0,3.34-.52,6.26-2,8a8.18,8.18,0,0,1-6.78,3.13l-.06-6.21c1.77-.25,2.69-1.63,2.69-3.7l0-8.65a8,8,0,0,0-.83-4.33c-.86-1.54-3.38-.85-4.21-.4l0-4.87ZM176.5,25.5l-5.6.21L171.52,9l5.42-.3L176.5,25.5Zm2.45,12,0,6.34A11.07,11.07,0,0,1,173.58,42a8.31,8.31,0,0,1-2.43-5L171,29.85l5.47-.09.1,4.56c0,1.68.6,3.08,2.39,3.18Zm-7.39-29.8.38-5.86L187.64,0l.07,6L171.56,7.71Z"/>
  </g>
</svg>
